<svg width="24" height="24" viewBox="0 0 24 24" fill="none" xmlns="http://www.w3.org/2000/svg">
  <path d="M21.384 15.632l-2.346-2.346a2.001 2.001 0 00-2.828 0l-1.414 1.414a.999.999 0 01-1.414 0l-4.243-4.243a.999.999 0 010-1.414l1.414-1.414a2.001 2.001 0 000-2.828L8.207 2.455a2.001 2.001 0 00-2.828 0L3.965 3.869C2.756 5.078 2 6.668 2 8.313c0 3.866 3.134 9.321 7.071 13.258C13.008 25.508 18.463 28.642 22.329 28.642c1.645 0 3.235-.756 4.444-1.965l1.414-1.414a2.001 2.001 0 000-2.828l-2.346-2.346a2.001 2.001 0 00-2.828 0l-1.414 1.414a.999.999 0 01-1.414 0l-4.243-4.243a.999.999 0 010-1.414l1.414-1.414a2.001 2.001 0 000-2.828z" fill="white"/>
</svg> 