<svg width="24" height="24" viewBox="0 0 24 24" fill="none" xmlns="http://www.w3.org/2000/svg">
  <path d="M19.707 4.293a1 1 0 00-1.414 0L16 6.586V6a3 3 0 00-4.5-2.592L8.232 5.39a1 1 0 101.536 1.28L12 5.177V11l-8.293-8.293a1 1 0 00-1.414 1.414l18 18a1 1 0 001.414-1.414L19.414 18.414A3.001 3.001 0 0016 16v-.586l2.293 2.293a1 1 0 001.414-1.414l-18-18a1 1 0 10-1.414 1.414L6 5.414V16a3 3 0 004.5 2.592l3.268-1.982a1 1 0 00-1.536-1.28L10 16.823V11l6 6v-.823l2.707 2.707a1 1 0 001.414-1.414L19.707 4.293z" fill="white"/>
</svg> 